<?xml version="1.0" standalone="no"?>
<!DOCTYPE svg PUBLIC "-//W3C//DTD SVG 20010904//EN"
 "http://www.w3.org/TR/2001/REC-SVG-20010904/DTD/svg10.dtd">
<svg version="1.0" xmlns="http://www.w3.org/2000/svg"
 width="502.000000pt" height="99.000000pt" viewBox="0 0 502.000000 99.000000"
 preserveAspectRatio="xMidYMid meet">
<metadata>
Created by potrace 1.16, written by Peter Selinger 2001-2019
</metadata>
<g transform="translate(0.000000,99.000000) scale(0.100000,-0.100000)"
fill="#000000" stroke="none">
<path d="M555 974 c-129 -31 -179 -52 -262 -110 -153 -109 -244 -268 -268
-471 l-7 -53 51 0 c50 0 51 -1 51 -30 0 -30 0 -30 58 -30 l59 0 12 53 c35 157
175 287 344 318 209 39 427 -103 480 -311 l14 -55 57 -3 56 -3 0 31 c0 30 1
30 51 30 l52 0 -7 72 c-13 142 -77 275 -182 380 -124 125 -250 178 -429 184
-60 1 -119 1 -130 -2z"/>
<path d="M1676 876 c-61 -23 -88 -48 -121 -111 -27 -52 -30 -70 -33 -165 -5
-139 12 -203 71 -264 68 -71 189 -95 305 -61 67 20 113 61 143 127 21 47 24
68 24 179 0 120 -1 128 -30 184 -23 45 -42 66 -79 89 -44 27 -58 31 -145 33
-66 2 -108 -1 -135 -11z m185 -152 c57 -52 49 -272 -12 -304 -27 -15 -92 -12
-116 5 -29 20 -43 73 -43 160 0 114 43 172 119 161 18 -3 42 -13 52 -22z"/>
<path d="M2451 870 c-29 -11 -64 -26 -77 -35 -23 -15 -24 -15 -24 15 l0 30
-85 0 -85 0 0 -300 0 -300 85 0 85 0 0 199 0 199 95 23 95 23 0 83 c0 95 0 95
-89 63z"/>
<path d="M2745 885 c-5 -1 -36 -8 -67 -15 l-58 -11 0 -64 0 -64 33 4 c84 11
210 13 232 5 27 -10 45 -68 25 -80 -6 -4 -53 -10 -103 -14 -103 -7 -167 -32
-201 -79 -17 -23 -21 -44 -21 -105 0 -92 23 -146 76 -177 44 -26 184 -27 242
-2 35 15 42 15 68 2 15 -9 56 -18 89 -22 l60 -6 0 65 c0 43 -5 69 -14 77 -10
9 -15 54 -18 184 -5 184 -14 223 -59 263 -37 33 -84 44 -183 43 -50 0 -95 -2
-101 -4z m175 -405 l0 -59 -37 -10 c-62 -18 -100 -14 -117 11 -39 55 -5 98 85
108 35 4 65 8 67 9 1 0 2 -26 2 -59z"/>
<path d="M3455 878 c-16 -6 -36 -15 -42 -21 -9 -7 -13 -5 -13 7 0 13 -13 16
-85 16 l-85 0 0 -300 0 -300 85 0 85 0 0 219 c0 140 4 222 10 226 6 4 34 9 63
12 43 4 57 2 77 -15 l25 -20 3 -211 3 -211 85 0 86 0 -4 233 c-3 224 -4 234
-28 282 -33 66 -88 95 -175 94 -33 0 -73 -5 -90 -11z"/>
<path d="M4023 881 c-57 -15 -120 -58 -137 -96 -40 -83 -29 -197 23 -258 l28
-32 -18 -30 c-22 -35 -25 -103 -5 -130 12 -16 9 -23 -19 -61 -38 -49 -48 -93
-36 -147 20 -87 95 -121 266 -121 152 0 226 25 279 97 30 41 30 173 0 214 -35
48 -83 65 -202 70 -120 6 -145 14 -140 46 3 20 11 23 87 30 94 8 162 34 185
70 27 41 42 131 29 178 l-11 41 39 -5 39 -5 0 69 0 70 -97 -1 c-54 0 -138 2
-188 5 -49 2 -104 1 -122 -4z m160 -152 c21 -26 22 -77 2 -106 -19 -27 -70
-38 -108 -24 -35 14 -51 50 -43 96 6 28 14 40 39 51 40 18 87 10 110 -17z m60
-501 c22 -11 22 -40 -1 -61 -24 -22 -117 -32 -169 -18 -50 14 -63 40 -38 77
16 25 18 26 103 19 48 -4 95 -12 105 -17z"/>
<path d="M4645 875 c-54 -19 -118 -91 -136 -152 -18 -63 -19 -265 0 -317 47
-133 177 -171 429 -125 l62 11 0 63 0 63 -146 -2 -146 -1 -24 28 c-47 55 -41
57 150 57 l173 0 7 52 c9 82 7 120 -10 179 -20 67 -81 132 -139 148 -55 15
-172 13 -220 -4z m175 -143 c13 -11 23 -33 27 -60 l6 -42 -97 0 -96 0 0 25 c0
31 24 81 42 88 30 12 97 6 118 -11z"/>
</g>
</svg>
